<?xml version="1.0" encoding="UTF-8" standalone="no"?>
<svg
   id="Layer_1"
   data-name="Layer 1"
   viewBox="0 0 599.72925 272.72"
   version="1.1"
   width="599.72925"
   height="272.72"
   xmlns="http://www.w3.org/2000/svg"
   xmlns:svg="http://www.w3.org/2000/svg">
  <defs
     id="defs23">
    <style
       id="style2">
      .cls-1, .cls-2, .cls-3, .cls-4, .cls-5, .cls-6, .cls-7, .cls-8, .cls-9, .cls-10, .cls-11, .cls-12, .cls-13, .cls-14, .cls-15, .cls-16, .cls-17, .cls-18, .cls-19, .cls-20, .cls-21, .cls-22, .cls-23, .cls-24, .cls-25, .cls-26, .cls-27, .cls-28, .cls-29, .cls-30 {
        stroke-width: 0px;
      }

      .cls-1, .cls-4, .cls-6, .cls-8, .cls-13, .cls-19, .cls-20, .cls-21 {
        fill-rule: evenodd;
      }

      .cls-1, .cls-25 {
        fill: #fff;
      }

      .cls-2 {
        fill: #2b4998;
      }

      .cls-3 {
        fill: #cdb048;
      }

      .cls-4 {
        fill: #fde256;
      }

      .cls-5 {
        fill: #e8c75b;
      }

      .cls-6 {
        fill: #061c2f;
      }

      .cls-7 {
        fill: #f8f9f3;
      }

      .cls-8 {
        fill: #5397cb;
      }

      .cls-31 {
        clip-path: url(#clippath-2);
      }

      .cls-9 {
        fill: #2a4a98;
      }

      .cls-10 {
        fill: #e22726;
      }

      .cls-32 {
        isolation: isolate;
      }

      .cls-11 {
        fill: #fcda60;
      }

      .cls-12 {
        fill: #e32b26;
      }

      .cls-13 {
        fill: #f088a0;
      }

      .cls-14 {
        fill: #f38799;
      }

      .cls-15 {
        fill: none;
      }

      .cls-16 {
        fill: #4285b1;
      }

      .cls-33 {
        clip-path: url(#clippath-1);
      }

      .cls-17 {
        fill: #2c6c97;
      }

      .cls-18 {
        fill: #f8b143;
      }

      .cls-19 {
        fill: url(#linear-gradient);
      }

      .cls-20 {
        fill: url(#linear-gradient-2);
      }

      .cls-21, .cls-24 {
        fill: #f8b244;
      }

      .cls-34 {
        clip-path: url(#clippath);
      }

      .cls-22 {
        fill: #2152a3;
      }

      .cls-23 {
        fill: #ef8a9e;
      }

      .cls-35 {
        fill: #f2e3d2;
        stroke: #231f20;
        stroke-miterlimit: 10;
      }

      .cls-26 {
        fill: #374da0;
      }

      .cls-27 {
        fill: #ed312e;
      }

      .cls-28 {
        fill: #faaf4e;
      }

      .cls-29 {
        fill: #295480;
      }

      .cls-30 {
        fill: #e78392;
      }
    </style>
    <clipPath
       id="clippath">
      <path
         class="cls-15"
         d="m 1737.54,82.63 h 188.98 v 48.5 h -176.98 c -6.62,0 -12,-5.38 -12,-12 v -36.5 z"
         id="path4" />
    </clipPath>
    <linearGradient
       id="linear-gradient"
       x1="1754.62"
       y1="864.69"
       x2="1774.47"
       y2="881.77002"
       gradientTransform="translate(20.46,-766.91)"
       gradientUnits="userSpaceOnUse">
      <stop
         offset="0"
         stop-color="#5a9ed3"
         id="stop7" />
      <stop
         offset="1"
         stop-color="#113d65"
         id="stop9" />
    </linearGradient>
    <linearGradient
       id="linear-gradient-2"
       x1="1716.76"
       y1="824.44"
       x2="1703.09"
       y2="804.60999"
       gradientTransform="translate(82.27,-700.77)"
       gradientUnits="userSpaceOnUse">
      <stop
         offset="0"
         stop-color="#ffc708"
         id="stop12" />
      <stop
         offset="1"
         stop-color="#fde774"
         id="stop14" />
    </linearGradient>
    <clipPath
       id="clippath-1">
      <rect
         class="cls-15"
         x="1747.4"
         y="82.440002"
         width="20.450001"
         height="5.7199998"
         id="rect17" />
    </clipPath>
    <clipPath
       id="clippath-2">
      <rect
         class="cls-15"
         x="1890.35"
         y="82.440002"
         width="20.76"
         height="5.7199998"
         transform="rotate(180,1900.735,85.3)"
         id="rect20" />
    </clipPath>
  </defs>
  <g
     id="g347"
     transform="translate(-136.02075,-158.55)">
    <g
       id="g283">
      <g
         id="g165">
        <path
           class="cls-28"
           d="m 387.68,264.3 c 3.68,15.33 4.94,26.78 3.8,39.44 h -0.11 c 0,0 -49.18,-0.01 -49.18,-0.01 v -39.41 h 45.42 z"
           id="path153" />
        <path
           class="cls-22"
           d="m 391.37,303.72 h 0.11 c -0.46,5.08 -1.31,10.35 -2.54,16.14 h -0.05 c 0,-8.91 -10.45,-16.14 -23.35,-16.14 z"
           id="path155" />
        <path
           class="cls-28"
           d="m 388.89,319.85 h 0.05 c -0.4,1.9 -0.84,3.84 -1.33,5.85 -2.13,8.89 -6.59,16.18 -12.92,21.08 -5.98,4.63 -13.46,7.08 -21.64,7.08 h -10.87 v -34.01 h 46.7 z"
           id="path157" />
        <path
           class="cls-22"
           d="m 387.61,264.01 c 0.02,0.1 0.05,0.19 0.07,0.29 l -0.07,0.02 -45.42,-28.46 h 16.73 c 18.13,0 25.61,15.31 28.69,28.15 z"
           id="path159" />
        <path
           class="cls-22"
           d="m 342.19,303.72 h 23.35 c -12.9,0 -23.35,7.22 -23.35,16.12 z"
           id="path161" />
        <path
           class="cls-27"
           d="m 342.19,264.32 v 39.41 h -44.23 c 11.59,0 22.65,-4.68 31.15,-13.2 8.32,-8.34 13.09,-19.57 13.09,-30.81 v 4.6 z"
           id="path163" />
      </g>
      <path
         class="cls-30"
         d="m 392.38,262.87 c -4.48,-18.64 -15.16,-31.92 -33.46,-31.92 h -21.64 v 28.76 c 0,20.78 -17.98,39.11 -39.33,39.11 h -62.88 c -17.5,0 -31.47,14.41 -31.47,31.99 v 59.94 c 0,17.06 14.39,29.88 31.47,32.73 10.5,1.75 21.39,2.57 31.87,2.57 h 0.93 c 10.76,-0.05 21.04,-0.97 30.08,-2.57 26.64,-4.71 31.47,-14.55 31.47,-32.73 v -23.99 h -62.95 v -8 h 86.58 c 18.3,0 34.32,-11 39.33,-31.92 5.78,-23.98 6.03,-38.94 0,-63.98 z m -90.46,119.88 c 6.52,0 11.81,5.35 11.81,11.96 0,6.61 -5.31,12.03 -11.81,12.03 -6.5,0 -11.81,-5.42 -11.81,-12.03 0,-6.61 5.29,-11.96 11.81,-11.96 z m -34.98,38.39 h 0.03 -0.02 c -0.1,0 -0.21,0 -0.31,0 0.1,0 0.2,0 0.31,0 z m 44.54,-95.32 c 2.05,0 3.72,1.67 3.72,3.72 0,2.05 -1.67,3.72 -3.72,3.72 -2.05,0 -3.72,-1.67 -3.72,-3.72 0,-2.05 1.67,-3.72 3.72,-3.72 z m -3.72,-7.6 c 0,-2.05 1.67,-3.72 3.72,-3.72 2.05,0 3.72,1.67 3.72,3.72 0,2.05 -1.67,3.73 -3.72,3.73 -2.05,0 -3.72,-1.67 -3.72,-3.73 z m 3.72,18.91 c 2.05,0 3.72,1.67 3.72,3.72 0,2.05 -1.67,3.72 -3.72,3.72 -2.05,0 -3.72,-1.67 -3.72,-3.72 0,-2.05 1.67,-3.72 3.72,-3.72 z m 14.97,-11.31 c 2.06,0 3.73,1.67 3.73,3.72 0,2.05 -1.67,3.72 -3.73,3.72 -2.06,0 -3.72,-1.67 -3.72,-3.72 0,-2.05 1.66,-3.72 3.72,-3.72 z m -3.72,-7.6 c 0,-2.05 1.66,-3.72 3.72,-3.72 2.06,0 3.73,1.67 3.73,3.72 0,2.05 -1.67,3.73 -3.73,3.73 -2.06,0 -3.72,-1.67 -3.72,-3.73 z m 3.72,18.91 c 2.06,0 3.73,1.67 3.73,3.72 0,2.05 -1.67,3.72 -3.73,3.72 -2.06,0 -3.72,-1.67 -3.72,-3.72 0,-2.05 1.66,-3.72 3.72,-3.72 z m -64.87,16.73 v 17.8 0 49.37 c -8.77,-0.24 -17.4,-1.02 -25.68,-2.4 -7.56,-1.26 -14.48,-4.7 -19.5,-9.67 -3.59,-3.57 -7.88,-9.63 -7.88,-18.21 v -59.94 c 0,-14.94 11.92,-27.08 26.57,-27.08 h 61.34 v 50.14 h -34.85 z m 126.03,-28.15 c -2.13,8.88 -6.59,16.17 -12.92,21.07 -5.98,4.63 -13.46,7.08 -21.64,7.08 h -10.87 v -50.14 h -44.22 c 11.59,0 22.64,-4.69 31.13,-13.2 7.27,-7.28 11.79,-16.43 12.82,-26.21 0.15,-1.42 0,0 0,0 h 45.69 l -45.42,-28.46 v 0 c 0,0 16.74,0 16.74,0 v 0 c 18.13,0 25.61,15.32 28.69,28.17 5.7,23.63 5.7,38.05 0,61.69 z"
         id="path167" />
      <g
         id="g181">
        <path
           class="cls-25"
           d="m 326.45,314.5 c 2.06,0 3.73,1.67 3.73,3.72 0,2.05 -1.67,3.73 -3.73,3.73 -2.06,0 -3.72,-1.67 -3.72,-3.73 0,-2.06 1.67,-3.72 3.72,-3.72 z"
           id="path169" />
        <path
           class="cls-25"
           d="m 326.45,325.82 c 2.06,0 3.73,1.67 3.73,3.72 0,2.05 -1.67,3.72 -3.73,3.72 -2.06,0 -3.72,-1.67 -3.72,-3.72 0,-2.05 1.67,-3.72 3.72,-3.72 z"
           id="path171" />
        <path
           class="cls-25"
           d="m 326.45,337.13 c 2.06,0 3.73,1.67 3.73,3.72 0,2.05 -1.67,3.72 -3.73,3.72 -2.06,0 -3.72,-1.67 -3.72,-3.72 0,-2.05 1.67,-3.72 3.72,-3.72 z"
           id="path173" />
        <path
           class="cls-25"
           d="m 311.48,314.5 c 2.05,0 3.72,1.67 3.72,3.72 0,2.05 -1.67,3.73 -3.72,3.73 -2.05,0 -3.72,-1.67 -3.72,-3.73 0,-2.06 1.67,-3.72 3.72,-3.72 z"
           id="path175" />
        <path
           class="cls-25"
           d="m 311.48,333.26 c 2.05,0 3.72,-1.67 3.72,-3.72 0,-2.05 -1.67,-3.72 -3.72,-3.72 -2.05,0 -3.72,1.67 -3.72,3.72 0,2.05 1.67,3.72 3.72,3.72 z"
           id="path177" />
        <path
           class="cls-25"
           d="m 311.48,344.58 c 2.05,0 3.72,-1.67 3.72,-3.72 0,-2.05 -1.67,-3.72 -3.72,-3.72 -2.05,0 -3.72,1.67 -3.72,3.72 0,2.05 1.67,3.72 3.72,3.72 z"
           id="path179" />
      </g>
      <g
         id="g189">
        <path
           class="cls-27"
           d="M 324.17,196.19 H 308.5 c -0.11,-4.12 -2.64,-7.64 -6.2,-9.18 -1.23,-0.53 -2.58,-0.82 -4,-0.82 -5.55,0 -10.06,4.47 -10.21,10.01 h -16.83 c 0,-12.98 12.06,-23.84 27.03,-23.84 1.85,0 2.94,0.05 4.67,0.36 10.52,3.61 19.86,11.93 21.2,23.48 z"
           id="path183" />
        <path
           class="cls-28"
           d="m 302.3,187 -0.09,0.2 -30.95,30.95 v -21.96 h 16.83 c 0.15,-5.54 4.66,-10.01 10.21,-10.01 1.42,0 2.77,0.29 4,0.82 z"
           id="path185" />
        <path
           class="cls-28"
           d="m 302.97,172.71 c -1.72,-0.31 -2.82,-0.36 -4.67,-0.36 -14.97,0 -27.03,10.86 -27.03,23.84 v -27.44 c 8.77,0.23 17.39,1.05 25.69,2.43 2.01,0.33 4.03,0.85 6.01,1.53 z"
           id="path187" />
      </g>
      <g
         id="g201">
        <path
           class="cls-27"
           d="m 324.33,218.15 v 40.86 c 0,0.08 0,0.15 0,0.23 -0.23,-14.4 -11.97,-26 -26.42,-26 -14.45,0 -26.43,11.83 -26.43,26.43 h -0.21 v -41.52 h 53.07 z"
           id="path191" />
        <path
           class="cls-25"
           d="m 304.35,239.58 c 7.7,0 13.89,6.25 13.89,13.9 0,7.65 -5.8,13.49 -13.14,13.89 2.16,-1.88 3.52,-4.64 3.52,-7.72 0,-5.62 -4.55,-10.22 -10.21,-10.22 -3.22,0 -6.1,1.49 -7.96,3.83 0.12,-7.56 6.26,-13.68 13.89,-13.68 z"
           id="path193" />
        <path
           class="cls-28"
           d="m 298.41,249.43 c 5.65,0 10.21,4.59 10.21,10.22 0,3.07 -1.36,5.84 -3.52,7.72 -0.25,0.01 -0.5,0.02 -0.75,0.02 -7.7,0 -13.9,-6.25 -13.9,-13.9 0,-0.08 0,-0.14 0,-0.22 1.86,-2.34 4.74,-3.83 7.96,-3.83 z"
           id="path195" />
        <path
           class="cls-25"
           d="m 304.35,267.38 c 0.25,0 0.5,0 0.75,-0.02 -1.79,1.55 -4.12,2.49 -6.68,2.49 -5.65,0 -10.21,-4.59 -10.21,-10.21 0,-2.42 0.84,-4.64 2.24,-6.39 0,0.08 0,0.14 0,0.22 0,7.66 6.2,13.9 13.9,13.9 z"
           id="path197" />
        <path
           class="cls-28"
           d="m 297.76,286.09 h -26.5 v -26.43 h 0.21 c 0,14.55 11.75,26.35 26.28,26.43 z"
           id="path199" />
      </g>
      <g
         id="g225">
        <path
           class="cls-22"
           d="m 296.42,337.52 v 16.34 H 285 v -0.06 l 11.42,-16.27 z"
           id="path203" />
        <path
           class="cls-25"
           d="m 296.42,337.15 v 0.38 L 285,353.8 v 0.06 h -0.19 v -16.71 z"
           id="path205" />
        <path
           class="cls-22"
           d="m 296.42,326.04 v 11.11 h -37.84 c 0.94,-2.6 1.45,-5.39 1.45,-8.29 0,-0.95 -0.06,-1.89 -0.16,-2.82 h 36.56 z"
           id="path207" />
        <path
           class="cls-25"
           d="m 296.42,314.94 v 11.1 h -36.56 c -0.47,-4.07 -1.95,-7.86 -4.19,-11.1 z"
           id="path209" />
        <path
           class="cls-22"
           d="m 296.42,303.84 v 11.1 h -40.75 c -4.55,-6.58 -12.22,-10.95 -20.96,-11.1 v -0.12 c 0.12,0 0.24,0 0.35,0 h 61.35 v 0.12 z"
           id="path211" />
        <path
           class="cls-22"
           d="m 284.82,337.5 v 16.36 h -11.61 v -0.1 l 11.4,-16.26 h 0.2 z"
           id="path213" />
        <path
           class="cls-25"
           d="m 284.82,337.15 v 0.35 h -0.2 l -11.4,16.26 v -16.61 h 11.61 z"
           id="path215" />
        <path
           class="cls-22"
           d="m 273.21,353.75 v 0.1 h -11.64 v -0.06 L 273,337.49 h 0.2 v 16.26 z"
           id="path217" />
        <path
           class="cls-25"
           d="m 273.21,337.15 v 0.35 h -0.2 l -11.43,16.3 v -16.65 h 11.64 z"
           id="path219" />
        <path
           class="cls-22"
           d="m 261.58,353.79 v 0.06 h -11.67 v -0.06 l 11.43,-16.3 h 0.24 z"
           id="path221" />
        <path
           class="cls-22"
           d="m 261.58,337.15 v 0.35 h -0.24 l -11.43,16.3 v 0.06 H 235.2 c 10.83,-0.37 19.96,-7.24 23.39,-16.71 z"
           id="path223" />
      </g>
      <g
         id="g233">
        <path
           class="cls-28"
           d="m 259.87,326.04 c 0.1,0.92 0.16,1.86 0.16,2.82 0,2.9 -0.51,5.69 -1.45,8.29 -3.43,9.47 -12.56,16.34 -23.39,16.71 h -0.47 v -50.13 c 8.74,0.14 16.41,4.63 20.96,11.22 2.24,3.24 3.72,7.03 4.19,11.1 z"
           id="path227" />
        <path
           class="cls-27"
           d="m 234.72,352.68 v 1.18 h -1.38 c -13.44,-0.46 -24.26,-10.92 -24.82,-23.95 0.42,-13.11 10.03,-23.89 22.46,-25.87 1.98,-0.29 3.59,-0.31 3.74,-0.31 z"
           id="path229" />
        <path
           class="cls-14"
           d="m 233.34,353.86 h -24.83 v -23.05 c 0,-0.3 0,-0.6 0.02,-0.9 0.55,13.03 11.38,23.49 24.82,23.95 z"
           id="path231" />
      </g>
      <g
         id="g245">
        <path
           class="cls-27"
           d="m 261.57,395.09 v 25.97 L 233.4,385.38 c 0.58,-0.11 1.18,-0.17 1.79,-0.17 5.39,0 9.81,4.4 9.96,9.88 z"
           id="path235" />
        <path
           class="cls-27"
           d="m 261.57,371.67 v 23.43 c 0,-12.81 -11.77,-23.52 -26.37,-23.52 -3.95,0 -7.68,0.78 -11.04,2.18 l -0.05,-0.13 -15.6,-19.76 h 24.83 c 0.31,0.01 0.62,0.02 0.93,0.02 0.31,0 0.62,0 0.93,-0.02 h 26.37 v 17.81 z"
           id="path237" />
        <path
           class="cls-22"
           d="m 233.4,385.38 28.17,35.68 c -8.78,-0.23 -17.39,-1.05 -25.69,-2.43 -12.27,-2.05 -24.68,-10.64 -26.99,-23.54 h 16.35 c 0.13,-4.85 3.6,-8.87 8.16,-9.71 z"
           id="path239" />
        <path
           class="cls-25"
           d="m 233.4,385.38 c -4.56,0.84 -8.04,4.86 -8.16,9.71 h -16.35 c -0.03,-0.13 -0.05,-0.27 -0.07,-0.41 0.18,-9.18 6.4,-17.23 15.34,-20.93 3.36,-1.4 7.09,-2.18 11.04,-2.18 14.61,0 26.37,10.71 26.37,23.52 h -16.42 c -0.15,-5.47 -4.56,-9.88 -9.96,-9.88 -0.61,0 -1.21,0.06 -1.79,0.17 z"
           id="path241" />
        <path
           class="cls-22"
           d="m 224.11,373.62 0.05,0.13 c -8.94,3.71 -15.16,11.76 -15.34,20.93 -0.21,-1.27 -0.32,-2.58 -0.32,-3.93 v -36.89 l 15.6,19.76 z"
           id="path243" />
      </g>
      <g
         id="g257">
        <path
           class="cls-27"
           d="M 271.27,259.67 V 286.1 H 259.31 L 244.4,259.67 v -0.02 h 26.86 v 0.02 z"
           id="path247" />
        <path
           class="cls-25"
           d="m 257.89,235.96 13.37,23.69 h -26.85 l 13.37,-23.69 h 0.12 z"
           id="path249" />
        <path
           class="cls-25"
           d="m 244.4,259.67 14.91,26.43 h -56.7 l 14.91,-26.43 13.38,-23.71 h 0.12 z"
           id="path251" />
        <path
           class="cls-27"
           d="m 217.52,259.67 -14.91,26.43 h -11.96 v -26.44 h 26.86 v 0.02 z"
           id="path253" />
        <path
           class="cls-25"
           d="m 204.14,235.96 13.37,23.69 h -26.85 l 13.37,-23.69 h 0.12 z"
           id="path255" />
      </g>
      <g
         id="g263">
        <path
           class="cls-28"
           d="m 190.65,259.67 v 26.43 l -37.82,-37.83 v 0 c 1.58,-1.96 3.36,-3.7 5.32,-5.22 5.98,-4.64 13.46,-7.09 21.64,-7.09 h 10.87 v 23.71 z"
           id="path259" />
        <path
           class="cls-25"
           d="m 152.83,248.27 37.82,37.83 h -16.56 c -14.09,0 -25.52,-10.97 -25.52,-24.49 0,-4.53 1.29,-8.79 3.52,-12.42 0.24,-0.31 0.48,-0.62 0.73,-0.92 v 0 z"
           id="path261" />
      </g>
      <path
         class="cls-22"
         d="m 297.76,166.34 c -10.51,-1.75 -21.39,-2.57 -31.87,-2.57 v 0 c -0.31,0.01 -0.62,0.01 -0.93,0.01 -10.76,0.05 -21.04,0.97 -30.08,2.57 -26.64,4.71 -31.47,14.55 -31.47,32.73 v 23.99 h 62.95 v 8 h -86.58 c -18.3,0 -34.32,11 -39.33,31.92 -5.78,23.98 -6.03,38.94 0,63.98 4.48,18.64 15.16,31.92 33.46,31.92 h 21.64 v -28.76 c 0,-20.78 17.98,-39.11 39.33,-39.11 h 62.88 c 17.5,0 31.47,-14.41 31.47,-31.99 v -59.96 c 0,-17.06 -14.39,-29.88 -31.47,-32.73 z m -55.03,28.76 c 0,6.61 -5.29,11.96 -11.81,11.96 -6.52,0 -11.81,-5.32 -11.81,-11.96 0,-6.64 5.31,-12.03 11.81,-12.03 6.5,0 11.81,5.4 11.81,12.03 z m 62.37,72.27 c -1.79,1.55 -4.12,2.49 -6.68,2.49 -5.65,0 -10.2,-4.59 -10.2,-10.21 0,-2.42 0.84,-4.64 2.24,-6.39 0.12,-7.56 6.2,-13.68 13.89,-13.68 7.69,0 13.89,6.25 13.89,13.9 0,7.65 -5.8,13.49 -13.14,13.89 z m 19.23,-8.36 c 0,0.06 0,0.12 0,0.18 -0.26,-14.38 -11.98,-25.95 -26.42,-25.95 -14.44,0 -26.43,11.88 -26.43,26.43 0,14.55 11.75,26.35 26.28,26.43 v 0 c 0,0 0,0 0,0 h -62.88 c 0,0 0,0 0,0 h -44.23 v 44.01 0 c 0,0 0,23.86 0,23.86 h -16.74 c -18.13,0 -25.61,-15.31 -28.69,-28.16 -3.73,-15.46 -5,-26.98 -3.85,-39.71 h 32.71 c -14.09,0 -25.52,-10.97 -25.52,-24.49 0,-4.5 1.27,-8.72 3.48,-12.33 1.78,-2.36 3.81,-4.45 6.1,-6.23 5.98,-4.63 13.46,-7.08 21.64,-7.08 h 10.87 v 23.69 h 0.01 l 13.36,-23.69 h 0.12 l 13.36,23.69 v 0.02 c 0,0 13.39,-23.7 13.39,-23.7 h 0.12 l 13.37,23.7 v -0.02 c 0,0 13.37,-23.69 13.37,-23.69 h 0.12 l 13.36,23.69 h 0.01 v -23.69 0 -17.8 h -0.1 c 0,0 0.1,-0.01 0.1,-0.01 v -49.37 c 8.78,0.24 17.4,1.02 25.69,2.4 7.56,1.26 14.48,4.7 19.5,9.67 3.18,3.16 6.88,8.26 7.7,15.33 h -15.66 c -0.11,-4.12 -2.64,-7.64 -6.2,-9.18 l -0.09,0.2 -30.95,30.95 h 53.07 v 40.86 z m 0,-59.94 c 0,0 0,0 0,0 0,0 0,0 0,0 z"
         id="path265" />
      <g
         id="g281">
        <path
           class="cls-28"
           d="m 190.65,330.1 v 23.86 h -16.74 c -17.71,0 -25.26,-14.62 -28.47,-27.27 l 1.79,-2.01 h 43.42 z"
           id="path267" />
        <path
           class="cls-27"
           d="m 190.65,286.09 v 38.59 h -43.42 l -1.79,2.01 c -0.07,-0.29 -0.15,-0.59 -0.22,-0.88 -3.73,-15.47 -5.02,-26.98 -3.87,-39.71 h 49.29 z"
           id="path269" />
        <path
           class="cls-25"
           d="m 167.94,332.25 c 4.18,0 7.57,-3.39 7.57,-7.57 0,-4.18 -3.39,-7.57 -7.57,-7.57 -4.18,0 -7.57,3.39 -7.57,7.57 0,4.18 3.39,7.57 7.57,7.57 z"
           id="path271" />
        <path
           class="cls-25"
           d="m 183.08,332.25 c 4.18,0 7.57,-3.39 7.57,-7.57 0,-4.18 -3.39,-7.57 -7.57,-7.57 -4.18,0 -7.57,3.39 -7.57,7.57 0,4.18 3.39,7.57 7.57,7.57 z"
           id="path273" />
        <path
           class="cls-25"
           d="m 152.79,332.25 c 4.18,0 7.57,-3.39 7.57,-7.57 0,-4.18 -3.39,-7.57 -7.57,-7.57 -4.18,0 -7.57,3.39 -7.57,7.57 0,4.18 3.39,7.57 7.57,7.57 z"
           id="path275" />
        <path
           class="cls-25"
           d="m 175.51,318.98 c 4.18,0 7.57,-3.39 7.57,-7.57 0,-4.18 -3.39,-7.57 -7.57,-7.57 -4.18,0 -7.57,3.39 -7.57,7.57 0,4.18 3.39,7.57 7.57,7.57 z"
           id="path277" />
        <path
           class="cls-25"
           d="m 160.37,318.98 c 4.18,0 7.57,-3.39 7.57,-7.57 0,-4.18 -3.39,-7.57 -7.57,-7.57 -4.18,0 -7.57,3.39 -7.57,7.57 0,4.18 3.39,7.57 7.57,7.57 z"
           id="path279" />
      </g>
    </g>
    <g
       id="g345">
      <path
         class="cls-26"
         d="m 379.72,161.85 h 41.87 v 9.64 h -30.32 v 12.64 h 26.58 v 9.4 h -26.58 v 15.24 h 30.57 v 9.55 h -42.1 v -56.47 0 z"
         id="path285" />
      <path
         class="cls-26"
         d="m 422.78,219.27 h -44.02 v -58.38 h 43.78 v 11.44 h -30.41 v 10.89 h 26.66 v 11.19 h -26.66 v 13.51 h 30.66 v 11.35 0 z m -42.23,-1.77 h 40.44 v -7.8 h -30.66 v -17.06 h 26.66 V 185 h -26.66 v -14.44 h 30.41 v -7.89 h -40.2 v 54.83 0 z"
         id="path287" />
      <path
         class="cls-26"
         d="m 428.53,200.17 v -38.32 h 11.54 v 38.31 c 0,5.84 2.94,9.95 10.67,9.95 7.32,0 10.75,-4.27 10.75,-10.11 v -38.15 h 11.54 v 38.31 c 0,12.08 -7.48,19.11 -22.05,19.11 -14.57,0 -22.45,-6.87 -22.45,-19.11 v 0 z"
         id="path289" />
      <path
         class="cls-26"
         d="m 450.98,220.23 c -15.09,0 -23.41,-7.12 -23.41,-20.05 v -39.29 h 13.36 v 39.29 c 0,6.03 3.3,9.09 9.8,9.09 6.5,0 9.89,-3.37 9.89,-9.25 v -39.13 h 13.36 v 39.29 c 0,12.93 -8.17,20.05 -23.01,20.05 v 0 z m -21.62,-57.56 v 37.51 c 0,11.95 7.48,18.27 21.62,18.27 14.14,0 21.22,-6.32 21.22,-18.27 v -37.51 h -9.78 v 37.36 c 0,6.9 -4.36,11.02 -11.68,11.02 -7.32,0 -11.59,-3.86 -11.59,-10.86 v -37.52 z"
         id="path291" />
      <path
         class="cls-26"
         d="m 481.17,161.85 h 26.29 c 11.07,0 18.44,6.32 18.44,15.72 0,6.63 -3.13,11.69 -10.5,13.66 v 0.24 c 5.29,1.5 8.02,4.5 8.74,11.37 0.8,7.98 0.48,14.06 2.49,14.93 v 0.55 h -11.14 c -1.44,-0.63 -1.61,-6.95 -2.08,-13.03 -0.48,-6.16 -4.01,-9.64 -11.22,-9.64 h -9.38 v 22.67 h -11.62 v -56.47 0 z m 11.62,24.96 h 12.35 c 6.33,0 9.46,-3.24 9.46,-7.74 0,-4.5 -2.97,-7.98 -9.14,-7.98 h -12.67 z"
         id="path293" />
      <path
         class="cls-26"
         d="m 527.58,219.27 h -12.26 l -0.17,-0.08 c -1.62,-0.71 -1.94,-4.18 -2.4,-10.76 -0.07,-1.01 -0.14,-2.03 -0.22,-3.05 -0.46,-5.95 -3.85,-8.84 -10.35,-8.84 h -8.5 v 22.72 h -13.45 v -58.38 h 27.26 c 11.6,0 19.39,6.69 19.39,16.64 0,6.77 -3.1,11.51 -9.01,13.84 4.46,1.9 6.61,5.36 7.24,11.41 0.22,2.19 0.35,4.25 0.47,6.06 0.25,3.82 0.52,7.76 1.48,8.18 l 0.54,0.23 v 2.02 h 0.01 z m -11.76,-1.77 h 9.3 c -0.88,-1.56 -1.07,-4.45 -1.35,-8.54 -0.12,-1.8 -0.26,-3.84 -0.47,-6 -0.65,-6.18 -2.92,-9.16 -8.11,-10.64 l -0.65,-0.18 v -1.59 l 0.67,-0.18 c 6.55,-1.75 9.86,-6.07 9.86,-12.84 0,-8.89 -7.07,-14.87 -17.59,-14.87 h -25.46 v 54.83 h 9.85 v -22.72 h 10.31 c 7.41,0 11.62,3.62 12.15,10.48 0.08,1.02 0.15,2.05 0.22,3.06 0.25,3.51 0.58,8.25 1.28,9.18 v 0 z m -10.67,-29.81 h -13.28 v -17.53 h 13.6 c 6.2,0 10.06,3.4 10.06,8.89 0,5.49 -3.98,8.64 -10.38,8.64 z m -11.48,-1.78 h 11.48 c 5.45,0 8.58,-2.5 8.58,-6.87 0,-4.37 -3.01,-7.11 -8.26,-7.11 h -11.8 z"
         id="path295" />
      <path
         class="cls-26"
         d="m 530.93,190.12 c 0,-17.05 10.61,-29.71 27.32,-29.71 16.71,0 27.23,12.67 27.23,29.71 0,17.04 -10.53,29.63 -27.23,29.63 -16.7,0 -27.32,-12.58 -27.32,-29.63 z m 42.83,0 c 0,-11.39 -5.06,-20.23 -15.44,-20.23 -10.38,0 -15.68,8.84 -15.68,20.23 0,11.39 5.31,20.15 15.68,20.15 10.37,0 15.44,-8.84 15.44,-20.15 z"
         id="path297" />
      <path
         class="cls-26"
         d="m 558.25,220.71 c -16.65,0 -28.27,-12.58 -28.27,-30.59 0,-18.01 11.63,-30.66 28.27,-30.66 16.64,0 28.19,12.61 28.19,30.66 0,8.61 -2.7,16.37 -7.6,21.85 -5.11,5.71 -12.24,8.74 -20.59,8.74 z m 0,-59.46 c -15.85,0 -26.5,11.61 -26.5,28.88 0,17.27 10.65,28.8 26.5,28.8 15.85,0 26.41,-11.57 26.41,-28.8 0,-17.23 -10.62,-28.88 -26.41,-28.88 z m 0.08,49.96 c -10.09,0 -16.61,-8.28 -16.61,-21.09 0,-12.81 6.52,-21.17 16.61,-21.17 10.09,0 16.36,8.11 16.36,21.17 0,13.06 -6.27,21.09 -16.36,21.09 z m 0,-40.47 c -7.17,0 -14.83,5.09 -14.83,19.38 0,14.29 7.66,19.3 14.83,19.3 10.75,0 14.59,-9.97 14.59,-19.3 0,-9.33 -3.83,-19.38 -14.59,-19.38 z"
         id="path299" />
      <path
         class="cls-26"
         d="m 427.09,231.72 h 25 c 6.61,0 11.54,1.91 14.89,5.34 3.18,3.27 5.09,7.73 5.09,12.98 0,10.75 -7.09,18 -19.03,18 h -14.01 v 20.63 h -11.94 z m 11.94,26.92 h 11.94 c 6.05,0 9.23,-3.34 9.23,-8.52 0,-5.18 -3.34,-8.36 -9.07,-8.36 h -12.1 z"
         id="path301" />
      <path
         class="cls-26"
         d="m 491.63,266.68 -19.08,-34.97 h 12.66 l 8.65,16.88 c 1.76,3.42 3.77,8.12 3.77,8.12 h 0.16 c 0,0 2.16,-4.7 3.85,-8.12 l 8.49,-16.88 h 12.18 l -19.08,34.97 v 21.98 h -11.62 v -21.98 0 z"
         id="path303" />
      <path
         class="cls-26"
         d="m 524.71,231.72 h 45.94 v 9.72 h -17.18 v 47.23 h -11.58 v -47.23 h -17.18 z"
         id="path305" />
      <path
         class="cls-26"
         d="m 576.39,231.72 h 11.54 v 22.3 h 22.38 v -22.3 h 11.54 v 56.95 h -11.54 v -25.09 h -22.38 v 25.09 h -11.54 z"
         id="path307" />
      <path
         class="cls-26"
         d="m 628.55,260.47 c 0,-17.05 10.61,-29.71 27.32,-29.71 16.71,0 27.23,12.67 27.23,29.71 0,17.04 -10.53,29.63 -27.23,29.63 -16.7,0 -27.32,-12.58 -27.32,-29.63 z m 42.84,0 c 0,-11.39 -5.07,-20.23 -15.44,-20.23 -10.37,0 -15.68,8.84 -15.68,20.23 0,11.39 5.31,20.15 15.68,20.15 10.37,0 15.44,-8.84 15.44,-20.15 z"
         id="path309" />
      <path
         class="cls-26"
         d="m 689.81,231.72 h 11.72 l 18.98,31.78 c 1.83,3.11 3.99,7.96 3.99,7.96 h 0.16 c 0,0 -0.32,-5.89 -0.32,-9.87 v -29.87 h 11.41 v 56.95 h -11.16 l -19.46,-31.46 c -1.84,-3.02 -4.07,-7.89 -4.07,-7.89 h -0.16 c 0,0 0.32,5.98 0.32,9.96 v 29.39 h -11.41 z"
         id="path311" />
      <path
         class="cls-26"
         d="m 429.96,302.06 h 25 c 6.61,0 11.54,1.91 14.89,5.34 3.18,3.27 5.09,7.73 5.09,12.98 0,10.75 -7.09,18 -19.03,18 H 441.9 v 20.63 h -11.94 z m 11.94,26.92 h 11.94 c 6.05,0 9.23,-3.34 9.23,-8.52 0,-5.18 -3.34,-8.36 -9.07,-8.36 h -12.1 z"
         id="path313" />
      <path
         class="cls-26"
         d="m 480.69,302.06 h 26.29 c 11.07,0 18.44,6.37 18.44,15.85 0,6.69 -3.13,11.79 -10.5,13.78 v 0.24 c 5.29,1.51 8.02,4.54 8.74,11.47 0.8,8.05 0.48,14.18 2.49,15.05 v 0.56 h -11.14 c -1.44,-0.64 -1.61,-7.01 -2.08,-13.14 -0.48,-6.21 -4.01,-9.72 -11.22,-9.72 h -9.38 v 22.86 h -11.62 v -56.95 0 z m 11.62,25.17 h 12.35 c 6.33,0 9.46,-3.27 9.46,-7.8 0,-4.53 -2.97,-8.05 -9.14,-8.05 h -12.67 z"
         id="path315" />
      <path
         class="cls-26"
         d="m 548.97,302.06 h 12.02 l 20.19,56.95 h -12.1 l -3.84,-12.11 h -20.67 l -3.77,12.11 h -11.78 z m -1.68,36 h 15.14 l -5.13,-16.41 c -0.96,-3.03 -2.32,-8.76 -2.32,-8.76 h -0.16 c 0,0 -1.44,5.74 -2.4,8.76 l -5.12,16.41 v 0 z"
         id="path317" />
      <path
         class="cls-26"
         d="m 623.79,351.11 h -0.16 c -3.9,6.54 -9.24,8.85 -16.01,8.85 -8.6,0 -15.28,-3.11 -19.99,-8.3 -4.7,-5.26 -7.41,-12.6 -7.41,-21.22 0,-9.49 3.34,-17.78 9.32,-23.29 4.62,-4.23 10.67,-6.54 18.32,-6.54 14.33,0 22.53,7.9 24.37,19.06 h -11.31 c -1.27,-5.5 -5.49,-9.49 -12.82,-9.49 -10.75,0 -16.08,8.93 -16.08,20.26 0,11.33 6.13,20.18 15.92,20.18 8.84,0 14.65,-6.62 14.65,-12.92 v -0.32 h -13.7 v -8.93 h 23.97 v 30.3 h -8.68 l -0.4,-7.66 v 0 z"
         id="path319" />
      <path
         class="cls-26"
         d="m 640.52,340.69 v -38.63 h 11.54 v 38.63 c 0,5.89 2.94,10.04 10.67,10.04 7.32,0 10.75,-4.3 10.75,-10.2 v -38.47 h 11.54 v 38.63 c 0,12.18 -7.48,19.27 -22.05,19.27 -14.57,0 -22.45,-6.93 -22.45,-19.27 z"
         id="path321" />
      <path
         class="cls-26"
         d="m 693.63,302.06 h 41.87 v 9.72 h -30.32 v 12.74 h 26.58 v 9.47 h -26.58 v 15.37 h 30.56 V 359 h -42.11 v -56.95 0 z"
         id="path323" />
      <path
         class="cls-26"
         d="m 395.11,429.97 c -1.46,-1.55 -3.68,-4.15 -6.25,-7.34 -3.6,5.26 -8.48,8.64 -14.39,8.64 -9.33,0 -15.33,-5.53 -15.33,-14.34 0,-7.86 5.39,-13.3 12.93,-16.84 -3.68,-5.78 -4.71,-8.89 -4.71,-12.61 0,-8.03 6.6,-14.59 16.01,-14.59 8.73,0 14.22,3.71 14.22,11.14 0,6.56 -6.68,11.23 -13.53,13.91 1.8,2.42 4.02,5.44 6.85,9.16 0.6,0.86 1.29,1.64 1.88,2.42 l 1.46,-4.58 c 4.02,-12.35 5.91,-15.81 11.3,-15.81 h 3.6 l -1.29,13.3 c -2.14,-1.21 -3.51,-1.73 -5.14,-1.73 -2.57,0 -4.2,1.81 -7.71,11.57 6,7.6 11.39,13.73 15.33,17.7 H 395.1 v 0 z m -8.48,-10.02 c -2.57,-3.2 -5.39,-7 -8.31,-10.88 -1.63,-2.25 -3.08,-4.31 -4.28,-6.05 -2.48,2.5 -3.42,5.35 -3.42,8.38 0,5.7 3.25,10.28 9.59,10.28 2.57,0 4.71,-0.52 6.42,-1.73 z m -8.48,-35.41 c 0,3.45 0.77,5.87 4.46,11.31 3.25,-2.76 4.88,-6.22 4.88,-10.97 0,-4.23 -1.2,-7.86 -4.54,-7.86 -3.34,0 -4.79,2.85 -4.79,7.51 v 0 z"
         id="path325" />
      <path
         class="cls-26"
         d="m 422.79,372.88 h 26.02 c 10.95,0 18.25,6.37 18.25,15.85 0,6.69 -3.09,11.79 -10.39,13.78 v 0.24 c 5.23,1.51 7.93,4.54 8.65,11.47 0.79,8.05 0.47,14.18 2.46,15.05 v 0.56 h -11.03 c -1.43,-0.64 -1.59,-7.01 -2.06,-13.14 -0.47,-6.21 -3.97,-9.72 -11.1,-9.72 h -9.28 v 22.86 h -11.5 v -56.95 0 z m 11.5,25.17 h 12.22 c 6.27,0 9.36,-3.27 9.36,-7.8 0,-4.53 -2.93,-8.05 -9.05,-8.05 h -12.53 z"
         id="path327" />
      <path
         class="cls-26"
         d="m 474.47,372.88 h 41.87 v 9.72 h -30.32 v 12.74 h 26.58 v 9.48 h -26.58 v 15.37 h 30.57 v 9.64 h -42.1 v -56.95 0 z"
         id="path329" />
      <path
         class="cls-26"
         d="m 523.77,372.88 h 16.36 l 8.1,28.59 c 2.01,7.17 3.61,15.37 3.61,15.37 H 552 c 0,0 1.52,-8.2 3.53,-15.37 l 8.1,-28.59 h 16.6 v 56.95 H 569.4 v -32.66 c 0,-4.62 0.48,-11.79 0.48,-11.79 h -0.16 c 0,0 -1.28,6.69 -2.49,10.83 l -9.86,33.61 h -11.15 l -9.62,-33.61 c -1.2,-4.14 -2.49,-10.83 -2.49,-10.83 h -0.16 c 0,0 0.48,7.17 0.48,11.79 v 32.66 h -10.67 v -56.95 h 0.02 z"
         id="path331" />
      <path
         class="cls-26"
         d="m 586.44,401.63 c 0,-17.05 10.7,-29.71 27.56,-29.71 16.86,0 27.47,12.67 27.47,29.71 0,17.04 -10.62,29.63 -27.47,29.63 -16.85,0 -27.56,-12.58 -27.56,-29.63 z m 43.21,0 c 0,-11.39 -5.11,-20.23 -15.57,-20.23 -10.46,0 -15.82,8.84 -15.82,20.23 0,11.39 5.35,20.15 15.82,20.15 10.47,0 15.57,-8.84 15.57,-20.15 z"
         id="path333" />
      <path
         class="cls-26"
         d="m 641.95,372.88 h 45.94 v 9.72 h -17.17 v 47.23 H 659.13 V 382.6 h -17.17 v -9.72 0 z"
         id="path335" />
      <path
         class="cls-26"
         d="m 693.63,372.88 h 41.87 v 9.72 h -30.32 v 12.74 h 26.58 v 9.48 h -26.58 v 15.37 h 30.56 v 9.64 h -42.11 z"
         id="path337" />
      <path
         class="cls-26"
         d="m 735.74,185.3 h -138.3 v 10.05 h 138.3 z"
         id="path339" />
      <path
         class="cls-26"
         d="m 676.43,220.71 c 0.05,-2.92 1.34,-4.59 3.07,-6.04 1.57,-1.34 3.6,-2.61 4.97,-3.83 0.71,-0.63 1.14,-1.29 1.14,-2.16 0,-1.34 -0.78,-2.26 -2.25,-2.26 -0.81,0 -1.45,0.25 -1.88,0.79 -0.51,0.58 -0.76,1.37 -0.79,2.56 h -4.01 c 0,-2.03 0.35,-3.27 1.19,-4.41 0.99,-1.42 2.87,-2.38 5.58,-2.38 4.18,0 6.44,2.49 6.44,5.55 0,2.41 -1.34,3.8 -2.89,5 -1.55,1.27 -3.43,2.33 -4.64,3.63 v 0.03 h 7.56 v 3.53 h -13.49 z m 22.08,-2.94 c 2.36,0 3.27,-2.31 3.27,-5.73 0,-3.42 -0.94,-5.76 -3.27,-5.76 -2.33,0 -3.3,2.36 -3.3,5.76 0,3.4 0.96,5.73 3.3,5.73 z m -0.02,3.35 c -4.52,0 -7.66,-3.55 -7.66,-9.08 0,-5.53 3.12,-9.08 7.69,-9.08 4.57,0 7.69,3.55 7.69,9.08 0,5.53 -3.1,9.08 -7.71,9.08 z m 8.1,-0.41 c 0.05,-2.92 1.34,-4.59 3.07,-6.04 1.57,-1.34 3.6,-2.61 4.97,-3.83 0.71,-0.63 1.14,-1.29 1.14,-2.16 0,-1.34 -0.79,-2.26 -2.26,-2.26 -0.81,0 -1.45,0.25 -1.88,0.79 -0.51,0.58 -0.76,1.37 -0.78,2.56 h -4.01 c 0,-2.03 0.35,-3.27 1.19,-4.41 0.99,-1.42 2.87,-2.38 5.58,-2.38 4.19,0 6.44,2.49 6.44,5.55 0,2.41 -1.34,3.8 -2.89,5 -1.55,1.27 -3.42,2.33 -4.64,3.63 v 0.03 h 7.56 v 3.53 h -13.49 z m 22.05,0 v -3.86 h -8.09 v -3.93 l 8.04,-9.76 h 4.21 v 10.45 h 2.51 v 3.25 h -2.51 v 3.86 h -4.16 z m -4.87,-7.1 h 4.87 v -5.96 h -0.05 l -4.82,5.91 z"
         id="path341" />
      <path
         class="cls-26"
         d="m 646.6,177.09 c -4.31,0 -7.28,-2.08 -7.28,-5.38 0,-1.98 1.14,-3.53 3.01,-4.34 v -0.08 c -1.52,-0.74 -2.31,-1.9 -2.31,-3.5 0,-2.89 2.54,-4.84 6.54,-4.84 4,0 6.52,1.83 6.52,4.77 0,1.52 -0.86,2.71 -2.28,3.47 v 0.08 c 1.93,0.74 3.02,2.33 3.02,4.34 0,3.4 -2.94,5.48 -7.23,5.48 z m -0.03,-3.17 c 1.78,0 3,-0.99 3,-2.49 0,-1.5 -1.14,-2.59 -2.97,-2.59 -1.83,0 -3.04,1.04 -3.04,2.59 0,1.55 1.22,2.49 3.01,2.49 z m -0.02,-7.79 c 1.6,0 2.59,-0.89 2.59,-2.13 0,-1.24 -0.99,-2.11 -2.59,-2.11 -1.6,0 -2.56,0.86 -2.56,2.11 0,1.25 0.96,2.13 2.56,2.13 z m 8.17,5.96 v -3.55 h 6.9 v 3.55 z m 10.18,4.6 v -11.11 h -3.73 v -2.89 c 2.31,-0.08 4.18,-1.17 4.61,-3.53 h 3.4 v 17.53 z m 14.03,0 v -3.86 h -8.09 v -3.93 l 8.04,-9.76 h 4.21 v 10.45 h 2.51 v 3.25 h -2.51 v 3.86 h -4.16 z m -4.87,-7.11 h 4.87 v -5.96 h -0.05 l -4.82,5.91 z m 21.57,7.43 c -4.28,0 -6.34,-2.33 -6.34,-5.78 v -1.6 h 4.09 v 1.5 c 0,1.55 0.73,2.18 1.98,2.18 1.32,0 1.88,-0.81 1.88,-2.13 v -12.63 h 4.49 v 12.73 c 0,1.62 -0.4,2.94 -1.29,3.93 -1.01,1.12 -2.66,1.8 -4.79,1.8 z m 12.1,0.06 c -2.99,0 -4.57,-1.95 -4.57,-4.84 v -8.52 h 4.11 v 7.66 c 0,1.42 0.63,2.21 1.95,2.21 1.42,0 2.28,-1.07 2.28,-2.61 v -7.25 h 4.13 v 12.99 h -3.96 v -1.6 h -0.08 c -0.94,1.27 -2.08,1.98 -3.88,1.98 z m 9.42,-0.38 v -18.13 h 4.18 v 18.13 z m 6.11,4.28 v -3.22 h 1.42 c 1.22,0 1.7,-0.48 1.7,-1.37 0,-0.56 -0.25,-1.32 -0.78,-2.69 l -3.83,-9.99 h 4.36 l 1.75,5.53 c 0.41,1.27 0.81,2.99 0.81,2.99 h 0.05 c 0,0 0.36,-1.72 0.76,-2.99 l 1.7,-5.53 h 4.13 l -4.49,13.16 c -1.04,3.04 -2.28,4.11 -4.9,4.11 z"
         id="path343" />
    </g>
  </g>
</svg>
